<mxfile host="app.diagrams.net" modified="2021-05-13T03:29:11.831Z" agent="5.0 (Windows)" etag="jCwVkpqicjkY6ET9I-tk" version="14.6.12" type="github">
  <diagram id="O4AEN3zp3_15e8FMVuli" name="第 1 页">
    <mxGraphModel dx="1221" dy="644" grid="1" gridSize="10" guides="1" tooltips="1" connect="1" arrows="1" fold="1" page="1" pageScale="1" pageWidth="3300" pageHeight="4681" math="0" shadow="0">
      <root>
        <mxCell id="0" />
        <mxCell id="1" parent="0" />
        <mxCell id="3C201Es5-cZDIYYvgIIJ-50" value="" style="group" vertex="1" connectable="0" parent="1">
          <mxGeometry x="130" y="130" width="460" height="200" as="geometry" />
        </mxCell>
        <mxCell id="3C201Es5-cZDIYYvgIIJ-47" value="" style="rounded=0;whiteSpace=wrap;html=1;fillColor=#bac8d3;strokeColor=#23445d;" vertex="1" parent="3C201Es5-cZDIYYvgIIJ-50">
          <mxGeometry width="460" height="200" as="geometry" />
        </mxCell>
        <mxCell id="3C201Es5-cZDIYYvgIIJ-40" value="GPS/IMU" style="rounded=0;whiteSpace=wrap;html=1;" vertex="1" parent="3C201Es5-cZDIYYvgIIJ-50">
          <mxGeometry x="10" y="50" width="120" height="60" as="geometry" />
        </mxCell>
        <mxCell id="3C201Es5-cZDIYYvgIIJ-41" value="相机" style="rounded=0;whiteSpace=wrap;html=1;" vertex="1" parent="3C201Es5-cZDIYYvgIIJ-50">
          <mxGeometry x="150" y="50" width="120" height="60" as="geometry" />
        </mxCell>
        <mxCell id="3C201Es5-cZDIYYvgIIJ-42" value="毫米波雷达" style="rounded=0;whiteSpace=wrap;html=1;" vertex="1" parent="3C201Es5-cZDIYYvgIIJ-50">
          <mxGeometry x="10" y="120" width="120" height="60" as="geometry" />
        </mxCell>
        <mxCell id="3C201Es5-cZDIYYvgIIJ-43" value="激光雷达" style="rounded=0;whiteSpace=wrap;html=1;" vertex="1" parent="3C201Es5-cZDIYYvgIIJ-50">
          <mxGeometry x="150" y="120" width="120" height="60" as="geometry" />
        </mxCell>
        <mxCell id="3C201Es5-cZDIYYvgIIJ-44" value="标定" style="rounded=0;whiteSpace=wrap;html=1;" vertex="1" parent="3C201Es5-cZDIYYvgIIJ-50">
          <mxGeometry x="310" y="50" width="120" height="60" as="geometry" />
        </mxCell>
        <mxCell id="3C201Es5-cZDIYYvgIIJ-45" value="融合定位" style="rounded=0;whiteSpace=wrap;html=1;" vertex="1" parent="3C201Es5-cZDIYYvgIIJ-50">
          <mxGeometry x="310" y="120" width="120" height="60" as="geometry" />
        </mxCell>
        <mxCell id="3C201Es5-cZDIYYvgIIJ-49" value="&lt;h1&gt;传感&lt;/h1&gt;" style="text;html=1;strokeColor=none;fillColor=none;align=center;verticalAlign=middle;whiteSpace=wrap;rounded=0;" vertex="1" parent="3C201Es5-cZDIYYvgIIJ-50">
          <mxGeometry y="10" width="70" height="20" as="geometry" />
        </mxCell>
        <mxCell id="3C201Es5-cZDIYYvgIIJ-17" value="" style="rounded=0;whiteSpace=wrap;html=1;fillColor=#eeeeee;strokeColor=#36393d;" vertex="1" parent="1">
          <mxGeometry x="603.06" y="130" width="946.94" height="430" as="geometry" />
        </mxCell>
        <mxCell id="3C201Es5-cZDIYYvgIIJ-16" value="" style="rounded=0;whiteSpace=wrap;html=1;fillColor=#bac8d3;strokeColor=#23445d;" vertex="1" parent="1">
          <mxGeometry x="130" y="340" width="460" height="220" as="geometry" />
        </mxCell>
        <mxCell id="3C201Es5-cZDIYYvgIIJ-1" value="视觉障碍物识别" style="rounded=0;whiteSpace=wrap;html=1;fillColor=#f9f7ed;strokeColor=#36393d;" vertex="1" parent="1">
          <mxGeometry x="139.45578231292518" y="390" width="118.36734693877551" height="60" as="geometry" />
        </mxCell>
        <mxCell id="3C201Es5-cZDIYYvgIIJ-2" value="视觉车道线识别" style="rounded=0;whiteSpace=wrap;html=1;fillColor=#f9f7ed;strokeColor=#36393d;" vertex="1" parent="1">
          <mxGeometry x="300.81891156462586" y="390" width="118.36734693877551" height="60" as="geometry" />
        </mxCell>
        <mxCell id="3C201Es5-cZDIYYvgIIJ-3" value="视觉测距" style="rounded=0;whiteSpace=wrap;html=1;fillColor=#f9f7ed;strokeColor=#36393d;" vertex="1" parent="1">
          <mxGeometry x="455.1020408163265" y="390" width="118.36734693877551" height="60" as="geometry" />
        </mxCell>
        <mxCell id="3C201Es5-cZDIYYvgIIJ-4" value="激光障碍物识别" style="rounded=0;whiteSpace=wrap;html=1;" vertex="1" parent="1">
          <mxGeometry x="139.45578231292518" y="470" width="118.36734693877551" height="60" as="geometry" />
        </mxCell>
        <mxCell id="3C201Es5-cZDIYYvgIIJ-5" value="激光可行驶区域" style="rounded=0;whiteSpace=wrap;html=1;fillColor=#f9f7ed;strokeColor=#36393d;" vertex="1" parent="1">
          <mxGeometry x="297.27891156462584" y="470" width="118.36734693877551" height="60" as="geometry" />
        </mxCell>
        <mxCell id="3C201Es5-cZDIYYvgIIJ-6" value="激光障碍物识别" style="rounded=0;whiteSpace=wrap;html=1;fillColor=#f9f7ed;strokeColor=#36393d;" vertex="1" parent="1">
          <mxGeometry x="139.45578231292518" y="470" width="118.36734693877551" height="60" as="geometry" />
        </mxCell>
        <mxCell id="3C201Es5-cZDIYYvgIIJ-7" value="激光高精度地图构建" style="rounded=0;whiteSpace=wrap;html=1;fillColor=#f9f7ed;strokeColor=#36393d;" vertex="1" parent="1">
          <mxGeometry x="455.1020408163265" y="470" width="118.36734693877551" height="60" as="geometry" />
        </mxCell>
        <mxCell id="3C201Es5-cZDIYYvgIIJ-8" value="&lt;div align=&quot;center&quot;&gt;时&lt;/div&gt;&lt;div align=&quot;center&quot;&gt;空&lt;/div&gt;&lt;div align=&quot;center&quot;&gt;配&lt;/div&gt;&lt;div align=&quot;center&quot;&gt;准&lt;/div&gt;&lt;div align=&quot;center&quot;&gt;运&lt;/div&gt;&lt;div align=&quot;center&quot;&gt;动&lt;/div&gt;&lt;div align=&quot;center&quot;&gt;补&lt;/div&gt;&lt;div align=&quot;center&quot;&gt;偿&lt;/div&gt;" style="rounded=0;whiteSpace=wrap;html=1;fillColor=#f9f7ed;strokeColor=#36393d;align=center;" vertex="1" parent="1">
          <mxGeometry x="612.93" y="190" width="37.07" height="340" as="geometry" />
        </mxCell>
        <mxCell id="3C201Es5-cZDIYYvgIIJ-15" value="&lt;br/&gt;&lt;br/&gt;&lt;p style=&quot;margin-top: 0pt ; margin-bottom: 0pt ; margin-left: 0in ; text-align: center ; direction: ltr ; unicode-bidi: embed ; vertical-align: baseline ; word-break: normal&quot;&gt;&lt;span style=&quot;font-size: 9.0pt ; color: black&quot;&gt;车周环境重建&lt;/span&gt;&lt;/p&gt;&lt;br/&gt;&lt;br/&gt;" style="rounded=0;whiteSpace=wrap;html=1;fillColor=#f9f7ed;strokeColor=#36393d;" vertex="1" parent="1">
          <mxGeometry x="1080.0008163265306" y="330" width="118.36734693877551" height="180" as="geometry" />
        </mxCell>
        <mxCell id="3C201Es5-cZDIYYvgIIJ-18" value="&lt;h1&gt;感知&lt;/h1&gt;" style="text;html=1;strokeColor=none;fillColor=none;align=center;verticalAlign=middle;whiteSpace=wrap;rounded=0;" vertex="1" parent="1">
          <mxGeometry x="139.45578231292518" y="360" width="69.04761904761905" height="20" as="geometry" />
        </mxCell>
        <mxCell id="3C201Es5-cZDIYYvgIIJ-19" value="&lt;h1&gt;融合&lt;/h1&gt;" style="text;html=1;strokeColor=none;fillColor=none;align=center;verticalAlign=middle;whiteSpace=wrap;rounded=0;" vertex="1" parent="1">
          <mxGeometry x="612.9250340136053" y="140" width="69.04761904761905" height="20" as="geometry" />
        </mxCell>
        <mxCell id="3C201Es5-cZDIYYvgIIJ-51" value="&lt;div align=&quot;center&quot;&gt;航&lt;/div&gt;&lt;div align=&quot;center&quot;&gt;迹&lt;/div&gt;&lt;div align=&quot;center&quot;&gt;关&lt;/div&gt;&lt;div align=&quot;center&quot;&gt;联&lt;br&gt;&lt;/div&gt;" style="rounded=0;whiteSpace=wrap;html=1;fillColor=#f9f7ed;strokeColor=#36393d;align=center;" vertex="1" parent="1">
          <mxGeometry x="670" y="190" width="37.07" height="340" as="geometry" />
        </mxCell>
        <mxCell id="3C201Es5-cZDIYYvgIIJ-53" value="&lt;div align=&quot;center&quot;&gt;航&lt;/div&gt;&lt;div align=&quot;center&quot;&gt;迹&lt;/div&gt;&lt;div align=&quot;center&quot;&gt;融&lt;/div&gt;&lt;div align=&quot;center&quot;&gt;合&lt;br&gt;&lt;/div&gt;" style="rounded=0;whiteSpace=wrap;html=1;fillColor=#f9f7ed;strokeColor=#36393d;align=center;" vertex="1" parent="1">
          <mxGeometry x="730" y="190" width="37.07" height="340" as="geometry" />
        </mxCell>
        <mxCell id="3C201Es5-cZDIYYvgIIJ-54" value="&lt;div align=&quot;center&quot;&gt;航&lt;/div&gt;&lt;div align=&quot;center&quot;&gt;迹&lt;/div&gt;&lt;div align=&quot;center&quot;&gt;管&lt;/div&gt;&lt;div align=&quot;center&quot;&gt;理&lt;br&gt;&lt;/div&gt;" style="rounded=0;whiteSpace=wrap;html=1;fillColor=#f9f7ed;strokeColor=#36393d;align=center;" vertex="1" parent="1">
          <mxGeometry x="800" y="190" width="37.07" height="340" as="geometry" />
        </mxCell>
        <mxCell id="3C201Es5-cZDIYYvgIIJ-56" value="&lt;div&gt;目&lt;/div&gt;&lt;div&gt;标&lt;/div&gt;&lt;div&gt;跟&lt;/div&gt;&lt;div&gt;踪&lt;/div&gt;&lt;div&gt;预&lt;/div&gt;&lt;div&gt;测&lt;/div&gt;" style="rounded=0;whiteSpace=wrap;html=1;fillColor=#f9f7ed;strokeColor=#36393d;align=center;" vertex="1" parent="1">
          <mxGeometry x="870" y="190" width="37.07" height="340" as="geometry" />
        </mxCell>
        <mxCell id="3C201Es5-cZDIYYvgIIJ-57" value="&lt;div&gt;车&lt;/div&gt;&lt;div&gt;周&lt;/div&gt;&lt;div&gt;环&lt;/div&gt;&lt;div&gt;境&lt;/div&gt;&lt;div&gt;重&lt;/div&gt;&lt;div&gt;建&lt;/div&gt;" style="rounded=0;whiteSpace=wrap;html=1;fillColor=#f9f7ed;strokeColor=#36393d;align=center;" vertex="1" parent="1">
          <mxGeometry x="940" y="190" width="37.07" height="340" as="geometry" />
        </mxCell>
      </root>
    </mxGraphModel>
  </diagram>
</mxfile>
